<svg xmlns="http://www.w3.org/2000/svg" xmlns:xlink="http://www.w3.org/1999/xlink" width="1078pt" height="467pt" viewBox="0 0 1078 467"><g id="graph0" class="graph" transform="scale(1 1) rotate(0) translate(4 463)"><title>DOT</title><polygon fill="#fff" stroke="none" points="-4 4 -4 -463 1074 -463 1074 4 -4 4"/><g id="clust1" class="cluster"><title>cluster0</title><polygon fill="none" stroke="#000" points="502 -161 502 -366 930 -366 930 -161 502 -161"/><text x="716" y="-350.8" font-family="Times New Roman,serif" font-size="14" text-anchor="middle">Objects</text></g><g id="clust3" class="cluster"><title>cluster1</title><polygon fill="none" stroke="#000" points="8 -8 8 -366 494 -366 494 -8 8 -8"/><text x="251" y="-350.8" font-family="Times New Roman,serif" font-size="14" text-anchor="middle">Attributes</text></g><g id="clust5" class="cluster"><title>cluster2</title><polygon fill="none" stroke="#000" points="633 -399 633 -451 721 -451 721 -399 633 -399"/></g><g id="clust6" class="cluster"><title>cluster3</title><polygon fill="none" stroke="#d3d3d3" points="526 -20 526 -105 1062 -105 1062 -20 526 -20"/><text x="794" y="-89.8" font-family="Times New Roman,serif" font-size="14" text-anchor="middle">Instance</text></g><g id="node1" class="node"><title>DOT</title><ellipse cx="466" cy="-425" fill="none" stroke="#000" rx="71.487" ry="18"/><text x="466" y="-421.3" font-family="Times New Roman,serif" font-size="14" text-anchor="middle">DOT Languange</text></g><g id="node2" class="node"><title>Nodes</title><ellipse cx="677" cy="-317" fill="none" stroke="#000" rx="30.595" ry="18"/><text x="677" y="-313.3" font-family="Times New Roman,serif" font-size="14" text-anchor="middle">Node</text></g><g id="edge5" class="edge"><title>DOT-&gt;Nodes</title><path fill="none" stroke="#000" d="M497.123,-408.705C509.537,-402.592 523.952,-395.478 537,-389 557.473,-378.836 562.599,-376.309 583,-366 603.89,-355.444 627.336,-343.472 645.587,-334.125"/><polygon fill="#000" stroke="#000" points="647.313 -337.173 654.616 -329.498 644.12 -330.944 647.313 -337.173"/></g><g id="node3" class="node"><title>Edges</title><ellipse cx="545" cy="-317" fill="none" stroke="#000" rx="29.497" ry="18"/><text x="545" y="-313.3" font-family="Times New Roman,serif" font-size="14" text-anchor="middle">Edge</text></g><g id="edge4" class="edge"><title>DOT-&gt;Edges</title><path fill="none" stroke="#000" d="M478.693,-406.969C491.839,-389.331 512.485,-361.628 527.246,-341.822"/><polygon fill="#000" stroke="#000" points="530.199 -343.717 533.368 -333.607 524.586 -339.533 530.199 -343.717"/><text x="518.5" y="-377.8" font-family="Times New Roman,serif" font-size="14" text-anchor="middle">Edge</text></g><g id="node7" class="node"><title>Generic</title><ellipse cx="414" cy="-317" fill="none" stroke="#000" rx="38.993" ry="18"/><text x="414" y="-313.3" font-family="Times New Roman,serif" font-size="14" text-anchor="middle">Generic</text></g><g id="edge6" class="edge"><title>DOT-&gt;Generic</title><path fill="none" stroke="#000" d="M457.645,-406.969C449.257,-389.87 436.228,-363.312 426.588,-343.66"/><polygon fill="#000" stroke="#000" points="429.709 -342.075 422.163 -334.639 423.425 -345.158 429.709 -342.075"/></g><g id="node8" class="node"><title>Advance</title><ellipse cx="91" cy="-317" fill="none" stroke="#000" rx="42.793" ry="18"/><text x="91" y="-313.3" font-family="Times New Roman,serif" font-size="14" text-anchor="middle">Advance</text></g><g id="edge7" class="edge"><title>DOT-&gt;Advance</title><path fill="none" stroke="#000" d="M420.393,-411.108C347.781,-390.583 206.797,-350.732 135.127,-330.473"/><polygon fill="#000" stroke="#000" points="136.063 -327.101 125.488 -327.749 134.159 -333.837 136.063 -327.101"/></g><g id="node5" class="node"><title>Port</title><polygon fill="none" stroke="#000" points="630 -169.5 630 -238.5 720 -238.5 720 -169.5 630 -169.5"/><text x="647" y="-223.3" font-family="Times New Roman,serif" font-size="14" text-anchor="middle">nw</text><polyline fill="none" stroke="#000" points="664 -215.5 664 -238.5"/><text x="676.5" y="-223.3" font-family="Times New Roman,serif" font-size="14" text-anchor="middle">n</text><polyline fill="none" stroke="#000" points="689 -215.5 689 -238.5"/><text x="704.5" y="-223.3" font-family="Times New Roman,serif" font-size="14" text-anchor="middle">ne</text><polyline fill="none" stroke="#000" points="630 -215.5 720 -215.5"/><text x="643" y="-200.3" font-family="Times New Roman,serif" font-size="14" text-anchor="middle">w</text><polyline fill="none" stroke="#000" points="656 -192.5 656 -215.5"/><text x="676.5" y="-200.3" font-family="Times New Roman,serif" font-size="14" text-anchor="middle">Port</text><polyline fill="none" stroke="#000" points="697 -192.5 697 -215.5"/><text x="708.5" y="-200.3" font-family="Times New Roman,serif" font-size="14" text-anchor="middle">e</text><polyline fill="none" stroke="#000" points="630 -192.5 720 -192.5"/><text x="647" y="-177.3" font-family="Times New Roman,serif" font-size="14" text-anchor="middle">sw</text><polyline fill="none" stroke="#000" points="664 -169.5 664 -192.5"/><text x="676.5" y="-177.3" font-family="Times New Roman,serif" font-size="14" text-anchor="middle">s</text><polyline fill="none" stroke="#000" points="689 -169.5 689 -192.5"/><text x="704.5" y="-177.3" font-family="Times New Roman,serif" font-size="14" text-anchor="middle">se</text></g><g id="edge2" class="edge"><title>Nodes-&gt;Port:f0</title><path fill="none" stroke="#000" d="M677,-298.99C677,-279.396 677,-247.16 677,-225.756"/><polygon fill="#000" stroke="#000" points="680.5 -225.676 677 -215.676 673.5 -225.676 680.5 -225.676"/></g><g id="node6" class="node"><title>Shape</title><polygon fill="none" stroke="#000" points="738.5 -169.5 738.5 -238.5 921.5 -238.5 921.5 -169.5 738.5 -169.5"/><text x="830" y="-223.3" font-family="Times New Roman,serif" font-size="14" text-anchor="middle">Shape</text><polyline fill="none" stroke="#000" points="738.5 -215.5 921.5 -215.5"/><text x="761" y="-200.3" font-family="Times New Roman,serif" font-size="14" text-anchor="middle">box</text><polyline fill="none" stroke="#000" points="783.5 -192.5 783.5 -215.5"/><text x="823.5" y="-200.3" font-family="Times New Roman,serif" font-size="14" text-anchor="middle">invtriangle</text><polyline fill="none" stroke="#000" points="863.5 -192.5 863.5 -215.5"/><text x="892.5" y="-200.3" font-family="Times New Roman,serif" font-size="14" text-anchor="middle">ellipse</text><polyline fill="none" stroke="#000" points="738.5 -192.5 921.5 -192.5"/><text x="769.5" y="-177.3" font-family="Times New Roman,serif" font-size="14" text-anchor="middle">polygon</text><polyline fill="none" stroke="#000" points="800.5 -169.5 800.5 -192.5"/><text x="833" y="-177.3" font-family="Times New Roman,serif" font-size="14" text-anchor="middle">diamond</text><polyline fill="none" stroke="#000" points="865.5 -169.5 865.5 -192.5"/><text x="893.5" y="-177.3" font-family="Times New Roman,serif" font-size="14" text-anchor="middle">triangle</text></g><g id="edge3" class="edge"><title>Nodes-&gt;Shape</title><path fill="none" stroke="#000" d="M695.455,-302.611C715.204,-288.284 747.472,-264.874 775.457,-244.571"/><polygon fill="#000" stroke="#000" points="777.564 -247.366 783.603 -238.661 773.453 -241.7 777.564 -247.366"/></g><g id="node4" class="node"><title>Arrowhead</title><ellipse cx="561" cy="-204" fill="none" stroke="#000" rx="51.191" ry="18"/><text x="561" y="-200.3" font-family="Times New Roman,serif" font-size="14" text-anchor="middle">Arrowhead</text></g><g id="edge1" class="edge"><title>Edges-&gt;Arrowhead</title><path fill="none" stroke="#000" d="M547.5,-298.656C550.06,-280.898 554.075,-253.04 557.062,-232.317"/><polygon fill="#000" stroke="#000" points="560.555 -232.619 558.518 -222.222 553.627 -231.62 560.555 -232.619"/></g><g id="node16" class="node"><title>box</title><polygon fill="none" stroke="#000" points="588 -69 534 -69 534 -33 588 -33 588 -69"/><text x="561" y="-47.3" font-family="Times New Roman,serif" font-size="14" text-anchor="middle">box</text></g><g id="edge22" class="edge"><title>Arrowhead-&gt;box</title><path fill="none" stroke="#000" stroke-dasharray="1 5" d="M561,-185.972C561,-166.374 561,-133.232 561,-104.816"/></g><g id="node15" class="node"><title>triangle</title><polygon fill="none" stroke="#000" points="981 -74 908.412 -39.5 1053.59 -39.5 981 -74"/><text x="981" y="-47.3" font-family="Times New Roman,serif" font-size="14" text-anchor="middle">triangle</text></g><g id="edge21" class="edge"><title>Shape:f6-&gt;triangle</title><path fill="none" stroke="#000" stroke-dasharray="1 5" d="M894,-168C894,-142.138 898.695,-134.545 913,-113 922.23,-99.0979 935.36,-86.319 947.625,-76.0883"/><polygon fill="#000" stroke="#000" points="963.993 -67.725 953.96 -71.131 959.679 -62.212 963.993 -67.725"/><ellipse cx="950.81" cy="-73.596" fill="none" stroke="#000" rx="4" ry="4"/><text x="936.5" y="-116.8" font-family="Times New Roman,serif" font-size="14" text-anchor="middle">invodot</text></g><g id="edge17" class="edge"><title>Shape:f1-&gt;box</title><path fill="none" stroke="#000" stroke-dasharray="1 5" d="M737,-204C723.989,-204 737.415,-155.923 729,-146 689.267,-99.1475 646.36,-141.571 597,-105 586.931,-97.5401 578.753,-86.3822 572.751,-76.2255"/><ellipse cx="570.715" cy="-72.569" fill="#000" stroke="#000" rx="4" ry="4"/><text x="714.5" y="-116.8" font-family="Times New Roman,serif" font-size="14" text-anchor="middle">dot</text></g><g id="node17" class="node"><title>ellipse</title><ellipse cx="777" cy="-51" fill="none" stroke="#000" rx="33.295" ry="18"/><text x="777" y="-47.3" font-family="Times New Roman,serif" font-size="14" text-anchor="middle">ellipse</text></g><g id="edge18" class="edge"><title>Shape:s-&gt;ellipse</title><path fill="none" stroke="#000" stroke-dasharray="1 5" d="M830,-168C830,-146.797 813.392,-147.01 804,-128 795.889,-111.582 789.019,-92.104 784.238,-76.9774"/><ellipse cx="782.98" cy="-72.891" fill="none" stroke="#000" rx="4" ry="4"/><text x="817.5" y="-116.8" font-family="Times New Roman,serif" font-size="14" text-anchor="middle">odot</text></g><g id="node18" class="node"><title>polygon</title><polygon fill="none" stroke="#000" points="890 -69 828 -69 828 -33 890 -33 890 -69"/><text x="859" y="-47.3" font-family="Times New Roman,serif" font-size="14" text-anchor="middle">polygon</text></g><g id="edge19" class="edge"><title>Shape:s-&gt;polygon</title><path fill="none" stroke="#000" stroke-dasharray="1 5" d="M830,-168C830,-136.717 840.049,-102.067 848.317,-78.8546"/><polygon fill="#000" stroke="#000" points="855.114 -70.563 848.363 -78.728 848.549 -68.135 855.114 -70.563"/><text x="846.5" y="-116.8" font-family="Times New Roman,serif" font-size="14" text-anchor="middle">inv</text></g><g id="node19" class="node"><title>diamond</title><polygon fill="none" stroke="#000" points="666 -69 606.009 -51 666 -33 725.991 -51 666 -69"/><text x="666" y="-47.3" font-family="Times New Roman,serif" font-size="14" text-anchor="middle">diamond</text></g><g id="edge20" class="edge"><title>Shape:s-&gt;diamond</title><path fill="none" stroke="#000" stroke-dasharray="1 5" d="M830,-168C830,-129.829 785.538,-149.503 754,-128 731.941,-112.96 709.187,-93.175 692.343,-77.5624"/><polygon fill="#000" stroke="#000" points="681.636 -62.599 686.489 -72.017 676.822 -67.681 681.636 -62.599"/><ellipse cx="689.393" cy="-74.768" fill="#000" stroke="#000" rx="4" ry="4"/><text x="774" y="-116.8" font-family="Times New Roman,serif" font-size="14" text-anchor="middle">invdot</text></g><g id="node11" class="node"><title>Color</title><polygon fill="none" stroke="#00f" points="390 -158 390 -250 486 -250 486 -158 390 -158"/><text x="414.5" y="-200.3" font-family="Times New Roman,serif" font-size="14" text-anchor="middle">Color</text><polyline fill="none" stroke="#00f" points="439 -158 439 -250"/><text x="462.5" y="-234.8" font-family="Times New Roman,serif" font-size="14" text-anchor="middle">red</text><polyline fill="none" stroke="#00f" points="439 -227 486 -227"/><text x="462.5" y="-211.8" font-family="Times New Roman,serif" font-size="14" text-anchor="middle">green</text><polyline fill="none" stroke="#00f" points="439 -204 486 -204"/><text x="462.5" y="-188.8" font-family="Times New Roman,serif" font-size="14" text-anchor="middle">blue</text><polyline fill="none" stroke="#00f" points="439 -181 486 -181"/><text x="462.5" y="-165.8" font-family="Times New Roman,serif" font-size="14" text-anchor="middle">..</text></g><g id="edge10" class="edge"><title>Generic-&gt;Color:n</title><path fill="none" stroke="#000" d="M414,-298.893C414,-288.448 414,-274.556 414,-261.121"/><polygon fill="#000" stroke="#000" points="417.5 -261 414 -251 410.5 -261 417.5 -261"/></g><g id="node12" class="node"><title>Style</title><polygon fill="#d3d3d3" stroke="#000" points="163.5 -158 163.5 -250 260.5 -250 260.5 -158 163.5 -158"/><text x="185.5" y="-200.3" font-family="Times New Roman,serif" font-size="14" text-anchor="middle">Style</text><polyline fill="none" stroke="#000" points="207.5 -158 207.5 -250"/><text x="234" y="-234.8" font-family="Times New Roman,serif" font-size="14" text-anchor="middle">dotted</text><polyline fill="none" stroke="#000" points="207.5 -227 260.5 -227"/><text x="234" y="-211.8" font-family="Times New Roman,serif" font-size="14" text-anchor="middle">bold</text><polyline fill="none" stroke="#000" points="207.5 -204 260.5 -204"/><text x="234" y="-188.8" font-family="Times New Roman,serif" font-size="14" text-anchor="middle">filled</text><polyline fill="none" stroke="#000" points="207.5 -181 260.5 -181"/><text x="234" y="-165.8" font-family="Times New Roman,serif" font-size="14" text-anchor="middle">..</text></g><g id="edge11" class="edge"><title>Generic-&gt;Style:n</title><path fill="none" stroke="#000" d="M375.928,-313.071C316.662,-307.55 207.117,-293.141 187.911,-261.034"/><polygon fill="#000" stroke="#000" points="191.148 -259.629 185 -251 184.425 -261.579 191.148 -259.629"/></g><g id="node13" class="node"><title>Size</title><polygon fill="none" stroke="#000" stroke-width="2" points="278.5 -146.5 278.5 -261.5 371.5 -261.5 371.5 -146.5 278.5 -146.5"/><text x="298.5" y="-200.3" font-family="Times New Roman,serif" font-size="14" text-anchor="middle">Size</text><polyline fill="none" stroke="#000" stroke-width="2" points="318.5 -146.5 318.5 -261.5"/><text x="345" y="-246.3" font-family="Times New Roman,serif" font-size="14" text-anchor="middle">height</text><polyline fill="none" stroke="#000" stroke-width="2" points="318.5 -238.5 371.5 -238.5"/><text x="345" y="-223.3" font-family="Times New Roman,serif" font-size="14" text-anchor="middle">width</text><polyline fill="none" stroke="#000" stroke-width="2" points="318.5 -215.5 371.5 -215.5"/><text x="345" y="-200.3" font-family="Times New Roman,serif" font-size="14" text-anchor="middle">weight</text><polyline fill="none" stroke="#000" stroke-width="2" points="318.5 -192.5 371.5 -192.5"/><text x="345" y="-177.3" font-family="Times New Roman,serif" font-size="14" text-anchor="middle">ratio</text><polyline fill="none" stroke="#000" stroke-width="2" points="318.5 -169.5 371.5 -169.5"/><text x="345" y="-154.3" font-family="Times New Roman,serif" font-size="14" text-anchor="middle">..</text></g><g id="edge12" class="edge"><title>Generic-&gt;Size:n</title><path fill="none" stroke="#000" d="M375.374,-313.666C345.056,-309.73 306.76,-299.314 299.294,-271.946"/><polygon fill="#000" stroke="#000" points="302.761 -271.465 298 -262 295.82 -272.368 302.761 -271.465"/></g><g id="node9" class="node"><title>Font</title><polygon fill="none" stroke="#000" points="22.5 -16.5 22.5 -85.5 119.5 -85.5 119.5 -16.5 22.5 -16.5"/><text x="45" y="-47.3" fill="red" font-family="arial" font-size="14" text-anchor="middle">Font</text><polyline fill="none" stroke="#000" points="67.5 -16.5 67.5 -85.5"/><text x="93.5" y="-70.3" fill="red" font-family="arial" font-size="14" text-anchor="middle">name</text><polyline fill="none" stroke="#000" points="67.5 -62.5 119.5 -62.5"/><text x="93.5" y="-47.3" fill="red" font-family="arial" font-size="14" text-anchor="middle">color</text><polyline fill="none" stroke="#000" points="67.5 -39.5 119.5 -39.5"/><text x="93.5" y="-24.3" fill="red" font-family="arial" font-size="14" text-anchor="middle">size</text></g><g id="edge8" class="edge"><title>Advance-&gt;Font</title><path fill="none" stroke="#000" d="M65.8648,-302.302C51.5958,-293.007 35.0251,-279.271 27,-262 1.77438,-207.711 25.5603,-138.824 46.7633,-95.0631"/><polygon fill="#000" stroke="#000" points="50.027 -96.361 51.369 -85.852 43.766 -93.231 50.027 -96.361"/></g><g id="node10" class="node"><title>Label</title><polygon fill="none" stroke="#000" points="36.5 -158 36.5 -250 145.5 -250 145.5 -158 36.5 -158"/><text x="60" y="-200.3" font-family="Times New Roman,serif" font-size="14" text-anchor="middle">Label</text><polyline fill="none" stroke="#000" points="83.5 -158 83.5 -250"/><text x="114.5" y="-234.8" font-family="Times New Roman,serif" font-size="14" text-anchor="middle">angle</text><polyline fill="none" stroke="#000" points="83.5 -227 145.5 -227"/><text x="114.5" y="-211.8" font-family="Times New Roman,serif" font-size="14" text-anchor="middle">distance</text><polyline fill="none" stroke="#000" points="83.5 -204 145.5 -204"/><text x="114.5" y="-188.8" font-family="Times New Roman,serif" font-size="14" text-anchor="middle">float</text><polyline fill="none" stroke="#000" points="83.5 -181 145.5 -181"/><text x="114.5" y="-165.8" font-family="Times New Roman,serif" font-size="14" text-anchor="middle">..</text></g><g id="edge9" class="edge"><title>Advance-&gt;Label</title><path fill="none" stroke="#000" d="M91,-298.656C91,-288.254 91,-274.387 91,-260.518"/><polygon fill="#000" stroke="#000" points="94.5 -260.468 91 -250.468 87.5 -260.468 94.5 -260.468"/></g><g id="edge13" class="edge"><title>Label-&gt;Font</title><path fill="none" stroke="#000" d="M84.9993,-157.695C81.9387,-134.587 78.2797,-106.962 75.4701,-85.7493"/></g><g id="node14" class="node"><title>Cluster</title><ellipse cx="677" cy="-425" fill="none" stroke="#000" rx="36.294" ry="18"/><text x="677" y="-421.3" font-family="Times New Roman,serif" font-size="14" text-anchor="middle">Cluster</text></g><g id="edge14" class="edge"><title>Cluster-&gt;Nodes</title><path fill="none" stroke="#000" stroke-dasharray="1 5" d="M677,-399.074C677,-389.095 677,-377.249 677,-365.738"/></g><g id="edge15" class="edge"><title>Cluster-&gt;Generic</title><path fill="none" stroke="#000" stroke-dasharray="1 5" d="M649.742,-412.974C621.794,-401.977 576.893,-385.156 537,-374 519.959,-369.235 514.555,-372.245 498,-366 496.576,-365.463 495.147,-364.903 493.716,-364.324"/></g><g id="edge16" class="edge"><title>Cluster-&gt;triangle</title><path fill="none" stroke="#000" stroke-dasharray="1 5" d="M712.541,-420.87C775.84,-414.536 904.266,-398 934,-366 999.842,-295.14 997.502,-173.882 989.516,-104.617"/></g></g></svg>