<?xml version="1.0" encoding="UTF-8" standalone="no"?>
<!DOCTYPE svg PUBLIC "-//W3C//DTD SVG 1.1//EN"
 "http://www.w3.org/Graphics/SVG/1.1/DTD/svg11.dtd">
<!-- Generated by graphviz version 2.38.0 (20140413.2041)
 -->
<!-- Title: DOT Pages: 1 -->
<svg width="1078pt" height="467pt"
 viewBox="0.00 0.00 1078.00 467.00" xmlns="http://www.w3.org/2000/svg" xmlns:xlink="http://www.w3.org/1999/xlink">
<g id="graph0" class="graph" transform="scale(1 1) rotate(0) translate(4 463)">
<title>DOT</title>
<polygon fill="white" stroke="none" points="-4,4 -4,-463 1074,-463 1074,4 -4,4"/>
<g id="clust1" class="cluster"><title>cluster0</title>
<polygon fill="none" stroke="black" points="502,-161 502,-366 930,-366 930,-161 502,-161"/>
<text text-anchor="middle" x="716" y="-350.8" font-family="Times New Roman,serif" font-size="14.00">Objects</text>
</g>
<g id="clust3" class="cluster"><title>cluster1</title>
<polygon fill="none" stroke="black" points="8,-8 8,-366 494,-366 494,-8 8,-8"/>
<text text-anchor="middle" x="251" y="-350.8" font-family="Times New Roman,serif" font-size="14.00">Attributes</text>
</g>
<g id="clust5" class="cluster"><title>cluster2</title>
<polygon fill="none" stroke="black" points="633,-399 633,-451 721,-451 721,-399 633,-399"/>
</g>
<g id="clust6" class="cluster"><title>cluster3</title>
<polygon fill="none" stroke="lightgrey" points="526,-20 526,-105 1062,-105 1062,-20 526,-20"/>
<text text-anchor="middle" x="794" y="-89.8" font-family="Times New Roman,serif" font-size="14.00">Instance</text>
</g>
<!-- DOT -->
<g id="node1" class="node"><title>DOT</title>
<ellipse fill="none" stroke="black" cx="466" cy="-425" rx="71.4873" ry="18"/>
<text text-anchor="middle" x="466" y="-421.3" font-family="Times New Roman,serif" font-size="14.00">DOT Languange</text>
</g>
<!-- Nodes -->
<g id="node2" class="node"><title>Nodes</title>
<ellipse fill="none" stroke="black" cx="677" cy="-317" rx="30.5947" ry="18"/>
<text text-anchor="middle" x="677" y="-313.3" font-family="Times New Roman,serif" font-size="14.00">Node</text>
</g>
<!-- DOT&#45;&gt;Nodes -->
<g id="edge5" class="edge"><title>DOT&#45;&gt;Nodes</title>
<path fill="none" stroke="black" d="M497.123,-408.705C509.537,-402.592 523.952,-395.478 537,-389 557.473,-378.836 562.599,-376.309 583,-366 603.89,-355.444 627.336,-343.472 645.587,-334.125"/>
<polygon fill="black" stroke="black" points="647.313,-337.173 654.616,-329.498 644.12,-330.944 647.313,-337.173"/>
</g>
<!-- Edges -->
<g id="node3" class="node"><title>Edges</title>
<ellipse fill="none" stroke="black" cx="545" cy="-317" rx="29.4969" ry="18"/>
<text text-anchor="middle" x="545" y="-313.3" font-family="Times New Roman,serif" font-size="14.00">Edge</text>
</g>
<!-- DOT&#45;&gt;Edges -->
<g id="edge4" class="edge"><title>DOT&#45;&gt;Edges</title>
<path fill="none" stroke="black" d="M478.693,-406.969C491.839,-389.331 512.485,-361.628 527.246,-341.822"/>
<polygon fill="black" stroke="black" points="530.199,-343.717 533.368,-333.607 524.586,-339.533 530.199,-343.717"/>
<text text-anchor="middle" x="518.5" y="-377.8" font-family="Times New Roman,serif" font-size="14.00">Edge</text>
</g>
<!-- Generic -->
<g id="node7" class="node"><title>Generic</title>
<ellipse fill="none" stroke="black" cx="414" cy="-317" rx="38.9931" ry="18"/>
<text text-anchor="middle" x="414" y="-313.3" font-family="Times New Roman,serif" font-size="14.00">Generic</text>
</g>
<!-- DOT&#45;&gt;Generic -->
<g id="edge6" class="edge"><title>DOT&#45;&gt;Generic</title>
<path fill="none" stroke="black" d="M457.645,-406.969C449.257,-389.87 436.228,-363.312 426.588,-343.66"/>
<polygon fill="black" stroke="black" points="429.709,-342.075 422.163,-334.639 423.425,-345.158 429.709,-342.075"/>
</g>
<!-- Advance -->
<g id="node8" class="node"><title>Advance</title>
<ellipse fill="none" stroke="black" cx="91" cy="-317" rx="42.7926" ry="18"/>
<text text-anchor="middle" x="91" y="-313.3" font-family="Times New Roman,serif" font-size="14.00">Advance</text>
</g>
<!-- DOT&#45;&gt;Advance -->
<g id="edge7" class="edge"><title>DOT&#45;&gt;Advance</title>
<path fill="none" stroke="black" d="M420.393,-411.108C347.781,-390.583 206.797,-350.732 135.127,-330.473"/>
<polygon fill="black" stroke="black" points="136.063,-327.101 125.488,-327.749 134.159,-333.837 136.063,-327.101"/>
</g>
<!-- Port -->
<g id="node5" class="node"><title>Port</title>
<polygon fill="none" stroke="black" points="630,-169.5 630,-238.5 720,-238.5 720,-169.5 630,-169.5"/>
<text text-anchor="middle" x="647" y="-223.3" font-family="Times New Roman,serif" font-size="14.00">nw</text>
<polyline fill="none" stroke="black" points="664,-215.5 664,-238.5 "/>
<text text-anchor="middle" x="676.5" y="-223.3" font-family="Times New Roman,serif" font-size="14.00">n</text>
<polyline fill="none" stroke="black" points="689,-215.5 689,-238.5 "/>
<text text-anchor="middle" x="704.5" y="-223.3" font-family="Times New Roman,serif" font-size="14.00">ne</text>
<polyline fill="none" stroke="black" points="630,-215.5 720,-215.5 "/>
<text text-anchor="middle" x="643" y="-200.3" font-family="Times New Roman,serif" font-size="14.00">w</text>
<polyline fill="none" stroke="black" points="656,-192.5 656,-215.5 "/>
<text text-anchor="middle" x="676.5" y="-200.3" font-family="Times New Roman,serif" font-size="14.00">Port</text>
<polyline fill="none" stroke="black" points="697,-192.5 697,-215.5 "/>
<text text-anchor="middle" x="708.5" y="-200.3" font-family="Times New Roman,serif" font-size="14.00">e</text>
<polyline fill="none" stroke="black" points="630,-192.5 720,-192.5 "/>
<text text-anchor="middle" x="647" y="-177.3" font-family="Times New Roman,serif" font-size="14.00">sw</text>
<polyline fill="none" stroke="black" points="664,-169.5 664,-192.5 "/>
<text text-anchor="middle" x="676.5" y="-177.3" font-family="Times New Roman,serif" font-size="14.00">s</text>
<polyline fill="none" stroke="black" points="689,-169.5 689,-192.5 "/>
<text text-anchor="middle" x="704.5" y="-177.3" font-family="Times New Roman,serif" font-size="14.00">se</text>
</g>
<!-- Nodes&#45;&gt;Port -->
<g id="edge2" class="edge"><title>Nodes&#45;&gt;Port:f0</title>
<path fill="none" stroke="black" d="M677,-298.99C677,-279.396 677,-247.16 677,-225.756"/>
<polygon fill="black" stroke="black" points="680.5,-225.676 677,-215.676 673.5,-225.676 680.5,-225.676"/>
</g>
<!-- Shape -->
<g id="node6" class="node"><title>Shape</title>
<polygon fill="none" stroke="black" points="738.5,-169.5 738.5,-238.5 921.5,-238.5 921.5,-169.5 738.5,-169.5"/>
<text text-anchor="middle" x="830" y="-223.3" font-family="Times New Roman,serif" font-size="14.00">Shape</text>
<polyline fill="none" stroke="black" points="738.5,-215.5 921.5,-215.5 "/>
<text text-anchor="middle" x="761" y="-200.3" font-family="Times New Roman,serif" font-size="14.00">box</text>
<polyline fill="none" stroke="black" points="783.5,-192.5 783.5,-215.5 "/>
<text text-anchor="middle" x="823.5" y="-200.3" font-family="Times New Roman,serif" font-size="14.00">invtriangle</text>
<polyline fill="none" stroke="black" points="863.5,-192.5 863.5,-215.5 "/>
<text text-anchor="middle" x="892.5" y="-200.3" font-family="Times New Roman,serif" font-size="14.00">ellipse</text>
<polyline fill="none" stroke="black" points="738.5,-192.5 921.5,-192.5 "/>
<text text-anchor="middle" x="769.5" y="-177.3" font-family="Times New Roman,serif" font-size="14.00">polygon</text>
<polyline fill="none" stroke="black" points="800.5,-169.5 800.5,-192.5 "/>
<text text-anchor="middle" x="833" y="-177.3" font-family="Times New Roman,serif" font-size="14.00">diamond</text>
<polyline fill="none" stroke="black" points="865.5,-169.5 865.5,-192.5 "/>
<text text-anchor="middle" x="893.5" y="-177.3" font-family="Times New Roman,serif" font-size="14.00">triangle</text>
</g>
<!-- Nodes&#45;&gt;Shape -->
<g id="edge3" class="edge"><title>Nodes&#45;&gt;Shape</title>
<path fill="none" stroke="black" d="M695.455,-302.611C715.204,-288.284 747.472,-264.874 775.457,-244.571"/>
<polygon fill="black" stroke="black" points="777.564,-247.366 783.603,-238.661 773.453,-241.7 777.564,-247.366"/>
</g>
<!-- Arrowhead -->
<g id="node4" class="node"><title>Arrowhead</title>
<ellipse fill="none" stroke="black" cx="561" cy="-204" rx="51.1914" ry="18"/>
<text text-anchor="middle" x="561" y="-200.3" font-family="Times New Roman,serif" font-size="14.00">Arrowhead</text>
</g>
<!-- Edges&#45;&gt;Arrowhead -->
<g id="edge1" class="edge"><title>Edges&#45;&gt;Arrowhead</title>
<path fill="none" stroke="black" d="M547.5,-298.656C550.06,-280.898 554.075,-253.04 557.062,-232.317"/>
<polygon fill="black" stroke="black" points="560.555,-232.619 558.518,-222.222 553.627,-231.62 560.555,-232.619"/>
</g>
<!-- box -->
<g id="node16" class="node"><title>box</title>
<polygon fill="none" stroke="black" points="588,-69 534,-69 534,-33 588,-33 588,-69"/>
<text text-anchor="middle" x="561" y="-47.3" font-family="Times New Roman,serif" font-size="14.00">box</text>
</g>
<!-- Arrowhead&#45;&gt;box -->
<g id="edge22" class="edge"><title>Arrowhead&#45;&gt;box</title>
<path fill="none" stroke="black" stroke-dasharray="1,5" d="M561,-185.972C561,-166.374 561,-133.232 561,-104.816"/>
</g>
<!-- triangle -->
<g id="node15" class="node"><title>triangle</title>
<polygon fill="none" stroke="black" points="981,-74 908.412,-39.5 1053.59,-39.5 981,-74"/>
<text text-anchor="middle" x="981" y="-47.3" font-family="Times New Roman,serif" font-size="14.00">triangle</text>
</g>
<!-- Shape&#45;&gt;triangle -->
<g id="edge21" class="edge"><title>Shape:f6&#45;&gt;triangle</title>
<path fill="none" stroke="black" stroke-dasharray="1,5" d="M894,-168C894,-142.138 898.695,-134.545 913,-113 922.23,-99.0979 935.36,-86.319 947.625,-76.0883"/>
<polygon fill="black" stroke="black" points="963.993,-67.7254 953.96,-71.1312 959.679,-62.2124 963.993,-67.7254"/>
<ellipse fill="none" stroke="black" cx="950.81" cy="-73.5961" rx="4.00001" ry="4.00001"/>
<text text-anchor="middle" x="936.5" y="-116.8" font-family="Times New Roman,serif" font-size="14.00">invodot </text>
</g>
<!-- Shape&#45;&gt;box -->
<g id="edge17" class="edge"><title>Shape:f1&#45;&gt;box</title>
<path fill="none" stroke="black" stroke-dasharray="1,5" d="M737,-204C723.989,-204 737.415,-155.923 729,-146 689.267,-99.1475 646.36,-141.571 597,-105 586.931,-97.5401 578.753,-86.3822 572.751,-76.2255"/>
<ellipse fill="black" stroke="black" cx="570.715" cy="-72.5689" rx="4.00002" ry="4.00002"/>
<text text-anchor="middle" x="714.5" y="-116.8" font-family="Times New Roman,serif" font-size="14.00">dot</text>
</g>
<!-- ellipse -->
<g id="node17" class="node"><title>ellipse</title>
<ellipse fill="none" stroke="black" cx="777" cy="-51" rx="33.2948" ry="18"/>
<text text-anchor="middle" x="777" y="-47.3" font-family="Times New Roman,serif" font-size="14.00">ellipse</text>
</g>
<!-- Shape&#45;&gt;ellipse -->
<g id="edge18" class="edge"><title>Shape:s&#45;&gt;ellipse</title>
<path fill="none" stroke="black" stroke-dasharray="1,5" d="M830,-168C830,-146.797 813.392,-147.01 804,-128 795.889,-111.582 789.019,-92.104 784.238,-76.9774"/>
<ellipse fill="none" stroke="black" cx="782.98" cy="-72.8913" rx="4.00001" ry="4.00001"/>
<text text-anchor="middle" x="817.5" y="-116.8" font-family="Times New Roman,serif" font-size="14.00">odot</text>
</g>
<!-- polygon -->
<g id="node18" class="node"><title>polygon</title>
<polygon fill="none" stroke="black" points="890,-69 828,-69 828,-33 890,-33 890,-69"/>
<text text-anchor="middle" x="859" y="-47.3" font-family="Times New Roman,serif" font-size="14.00">polygon</text>
</g>
<!-- Shape&#45;&gt;polygon -->
<g id="edge19" class="edge"><title>Shape:s&#45;&gt;polygon</title>
<path fill="none" stroke="black" stroke-dasharray="1,5" d="M830,-168C830,-136.717 840.049,-102.067 848.317,-78.8546"/>
<polygon fill="black" stroke="black" points="855.114,-70.5629 848.363,-78.7284 848.549,-68.1352 855.114,-70.5629"/>
<text text-anchor="middle" x="846.5" y="-116.8" font-family="Times New Roman,serif" font-size="14.00">inv</text>
</g>
<!-- diamond -->
<g id="node19" class="node"><title>diamond</title>
<polygon fill="none" stroke="black" points="666,-69 606.009,-51 666,-33 725.991,-51 666,-69"/>
<text text-anchor="middle" x="666" y="-47.3" font-family="Times New Roman,serif" font-size="14.00">diamond</text>
</g>
<!-- Shape&#45;&gt;diamond -->
<g id="edge20" class="edge"><title>Shape:s&#45;&gt;diamond</title>
<path fill="none" stroke="black" stroke-dasharray="1,5" d="M830,-168C830,-129.829 785.538,-149.503 754,-128 731.941,-112.96 709.187,-93.175 692.343,-77.5624"/>
<polygon fill="black" stroke="black" points="681.636,-62.5994 686.489,-72.0174 676.822,-67.6815 681.636,-62.5994"/>
<ellipse fill="black" stroke="black" cx="689.393" cy="-74.7681" rx="4.00001" ry="4.00001"/>
<text text-anchor="middle" x="774" y="-116.8" font-family="Times New Roman,serif" font-size="14.00">invdot </text>
</g>
<!-- Color -->
<g id="node11" class="node"><title>Color</title>
<polygon fill="none" stroke="blue" points="390,-158 390,-250 486,-250 486,-158 390,-158"/>
<text text-anchor="middle" x="414.5" y="-200.3" font-family="Times New Roman,serif" font-size="14.00">Color</text>
<polyline fill="none" stroke="blue" points="439,-158 439,-250 "/>
<text text-anchor="middle" x="462.5" y="-234.8" font-family="Times New Roman,serif" font-size="14.00">red</text>
<polyline fill="none" stroke="blue" points="439,-227 486,-227 "/>
<text text-anchor="middle" x="462.5" y="-211.8" font-family="Times New Roman,serif" font-size="14.00">green</text>
<polyline fill="none" stroke="blue" points="439,-204 486,-204 "/>
<text text-anchor="middle" x="462.5" y="-188.8" font-family="Times New Roman,serif" font-size="14.00">blue</text>
<polyline fill="none" stroke="blue" points="439,-181 486,-181 "/>
<text text-anchor="middle" x="462.5" y="-165.8" font-family="Times New Roman,serif" font-size="14.00">..</text>
</g>
<!-- Generic&#45;&gt;Color -->
<g id="edge10" class="edge"><title>Generic&#45;&gt;Color:n</title>
<path fill="none" stroke="black" d="M414,-298.893C414,-288.448 414,-274.556 414,-261.121"/>
<polygon fill="black" stroke="black" points="417.5,-261 414,-251 410.5,-261 417.5,-261"/>
</g>
<!-- Style -->
<g id="node12" class="node"><title>Style</title>
<polygon fill="lightgrey" stroke="black" points="163.5,-158 163.5,-250 260.5,-250 260.5,-158 163.5,-158"/>
<text text-anchor="middle" x="185.5" y="-200.3" font-family="Times New Roman,serif" font-size="14.00">Style</text>
<polyline fill="none" stroke="black" points="207.5,-158 207.5,-250 "/>
<text text-anchor="middle" x="234" y="-234.8" font-family="Times New Roman,serif" font-size="14.00">dotted</text>
<polyline fill="none" stroke="black" points="207.5,-227 260.5,-227 "/>
<text text-anchor="middle" x="234" y="-211.8" font-family="Times New Roman,serif" font-size="14.00">bold</text>
<polyline fill="none" stroke="black" points="207.5,-204 260.5,-204 "/>
<text text-anchor="middle" x="234" y="-188.8" font-family="Times New Roman,serif" font-size="14.00">filled</text>
<polyline fill="none" stroke="black" points="207.5,-181 260.5,-181 "/>
<text text-anchor="middle" x="234" y="-165.8" font-family="Times New Roman,serif" font-size="14.00">..</text>
</g>
<!-- Generic&#45;&gt;Style -->
<g id="edge11" class="edge"><title>Generic&#45;&gt;Style:n</title>
<path fill="none" stroke="black" d="M375.928,-313.071C316.662,-307.55 207.117,-293.141 187.911,-261.034"/>
<polygon fill="black" stroke="black" points="191.148,-259.629 185,-251 184.425,-261.579 191.148,-259.629"/>
</g>
<!-- Size -->
<g id="node13" class="node"><title>Size</title>
<polygon fill="none" stroke="black" stroke-width="2" points="278.5,-146.5 278.5,-261.5 371.5,-261.5 371.5,-146.5 278.5,-146.5"/>
<text text-anchor="middle" x="298.5" y="-200.3" font-family="Times New Roman,serif" font-size="14.00">Size</text>
<polyline fill="none" stroke="black" stroke-width="2" points="318.5,-146.5 318.5,-261.5 "/>
<text text-anchor="middle" x="345" y="-246.3" font-family="Times New Roman,serif" font-size="14.00">height</text>
<polyline fill="none" stroke="black" stroke-width="2" points="318.5,-238.5 371.5,-238.5 "/>
<text text-anchor="middle" x="345" y="-223.3" font-family="Times New Roman,serif" font-size="14.00">width</text>
<polyline fill="none" stroke="black" stroke-width="2" points="318.5,-215.5 371.5,-215.5 "/>
<text text-anchor="middle" x="345" y="-200.3" font-family="Times New Roman,serif" font-size="14.00">weight</text>
<polyline fill="none" stroke="black" stroke-width="2" points="318.5,-192.5 371.5,-192.5 "/>
<text text-anchor="middle" x="345" y="-177.3" font-family="Times New Roman,serif" font-size="14.00">ratio</text>
<polyline fill="none" stroke="black" stroke-width="2" points="318.5,-169.5 371.5,-169.5 "/>
<text text-anchor="middle" x="345" y="-154.3" font-family="Times New Roman,serif" font-size="14.00">..</text>
</g>
<!-- Generic&#45;&gt;Size -->
<g id="edge12" class="edge"><title>Generic&#45;&gt;Size:n</title>
<path fill="none" stroke="black" d="M375.374,-313.666C345.056,-309.73 306.76,-299.314 299.294,-271.946"/>
<polygon fill="black" stroke="black" points="302.761,-271.465 298,-262 295.82,-272.368 302.761,-271.465"/>
</g>
<!-- Font -->
<g id="node9" class="node"><title>Font</title>
<polygon fill="none" stroke="black" points="22.5,-16.5 22.5,-85.5 119.5,-85.5 119.5,-16.5 22.5,-16.5"/>
<text text-anchor="middle" x="45" y="-47.3" font-family="arial" font-size="14.00" fill="Red">Font</text>
<polyline fill="none" stroke="black" points="67.5,-16.5 67.5,-85.5 "/>
<text text-anchor="middle" x="93.5" y="-70.3" font-family="arial" font-size="14.00" fill="Red">name</text>
<polyline fill="none" stroke="black" points="67.5,-62.5 119.5,-62.5 "/>
<text text-anchor="middle" x="93.5" y="-47.3" font-family="arial" font-size="14.00" fill="Red">color</text>
<polyline fill="none" stroke="black" points="67.5,-39.5 119.5,-39.5 "/>
<text text-anchor="middle" x="93.5" y="-24.3" font-family="arial" font-size="14.00" fill="Red">size</text>
</g>
<!-- Advance&#45;&gt;Font -->
<g id="edge8" class="edge"><title>Advance&#45;&gt;Font</title>
<path fill="none" stroke="black" d="M65.8648,-302.302C51.5958,-293.007 35.0251,-279.271 27,-262 1.77438,-207.711 25.5603,-138.824 46.7633,-95.0631"/>
<polygon fill="black" stroke="black" points="50.0273,-96.3612 51.3686,-85.8515 43.7662,-93.2309 50.0273,-96.3612"/>
</g>
<!-- Label -->
<g id="node10" class="node"><title>Label</title>
<polygon fill="none" stroke="black" points="36.5,-158 36.5,-250 145.5,-250 145.5,-158 36.5,-158"/>
<text text-anchor="middle" x="60" y="-200.3" font-family="Times New Roman,serif" font-size="14.00">Label</text>
<polyline fill="none" stroke="black" points="83.5,-158 83.5,-250 "/>
<text text-anchor="middle" x="114.5" y="-234.8" font-family="Times New Roman,serif" font-size="14.00">angle</text>
<polyline fill="none" stroke="black" points="83.5,-227 145.5,-227 "/>
<text text-anchor="middle" x="114.5" y="-211.8" font-family="Times New Roman,serif" font-size="14.00">distance</text>
<polyline fill="none" stroke="black" points="83.5,-204 145.5,-204 "/>
<text text-anchor="middle" x="114.5" y="-188.8" font-family="Times New Roman,serif" font-size="14.00">float</text>
<polyline fill="none" stroke="black" points="83.5,-181 145.5,-181 "/>
<text text-anchor="middle" x="114.5" y="-165.8" font-family="Times New Roman,serif" font-size="14.00">..</text>
</g>
<!-- Advance&#45;&gt;Label -->
<g id="edge9" class="edge"><title>Advance&#45;&gt;Label</title>
<path fill="none" stroke="black" d="M91,-298.656C91,-288.254 91,-274.387 91,-260.518"/>
<polygon fill="black" stroke="black" points="94.5001,-260.468 91,-250.468 87.5001,-260.468 94.5001,-260.468"/>
</g>
<!-- Label&#45;&gt;Font -->
<g id="edge13" class="edge"><title>Label&#45;&gt;Font</title>
<path fill="none" stroke="black" d="M84.9993,-157.695C81.9387,-134.587 78.2797,-106.962 75.4701,-85.7493"/>
</g>
<!-- Cluster -->
<g id="node14" class="node"><title>Cluster</title>
<ellipse fill="none" stroke="black" cx="677" cy="-425" rx="36.2938" ry="18"/>
<text text-anchor="middle" x="677" y="-421.3" font-family="Times New Roman,serif" font-size="14.00">Cluster</text>
</g>
<!-- Cluster&#45;&gt;Nodes -->
<g id="edge14" class="edge"><title>Cluster&#45;&gt;Nodes</title>
<path fill="none" stroke="black" stroke-dasharray="1,5" d="M677,-399.074C677,-389.095 677,-377.249 677,-365.738"/>
</g>
<!-- Cluster&#45;&gt;Generic -->
<g id="edge15" class="edge"><title>Cluster&#45;&gt;Generic</title>
<path fill="none" stroke="black" stroke-dasharray="1,5" d="M649.742,-412.974C621.794,-401.977 576.893,-385.156 537,-374 519.959,-369.235 514.555,-372.245 498,-366 496.576,-365.463 495.147,-364.903 493.716,-364.324"/>
</g>
<!-- Cluster&#45;&gt;triangle -->
<g id="edge16" class="edge"><title>Cluster&#45;&gt;triangle</title>
<path fill="none" stroke="black" stroke-dasharray="1,5" d="M712.541,-420.87C775.84,-414.536 904.266,-398 934,-366 999.842,-295.14 997.502,-173.882 989.516,-104.617"/>
</g>
</g>
</svg>
